<?xml version="1.0" encoding="utf-8"?>
<!-- Generator: Adobe Illustrator 27.5.0, SVG Export Plug-In . SVG Version: 6.00 Build 0)  -->
<svg version="1.1" xmlns="http://www.w3.org/2000/svg" xmlns:xlink="http://www.w3.org/1999/xlink" x="0px" y="0px"
	 viewBox="0 0 3710 3710" style="enable-background:new 0 0 3710 3710;" xml:space="preserve">
<g id="Background">
	<g>
		<g>
			<rect style="fill:#FFFFFF;" width="3710" height="3710"/>
		</g>
	</g>
</g>
<g id="Illustration">
	<g>
		<linearGradient id="SVGID_1_" gradientUnits="userSpaceOnUse" x1="3393.4143" y1="3561.136" x2="1501.0721" y2="1546.7076">
			<stop  offset="0" style="stop-color:#DAE3FE"/>
			<stop  offset="1" style="stop-color:#E9EFFD"/>
		</linearGradient>
		<path style="fill:url(#SVGID_1_);" d="M2825.24,2752.956c-69.857,72.007-132.363,114.334-180.22,146.289
			c-466.738,311.645-1000.271,221.822-1165.226,191.12c-266.135-49.533-490.789-84.477-683.808-258.861
			c-438.596-396.254-417.264-1222.87-82.123-1734.923c39.738-60.715,374.371-556.745,909.059-626.64
			c13.078-1.71,22.835-2.683,31.382-3.588c82.715-8.758,595.283-54.979,1013.231,295.178
			c59.827,50.123,156.107,140.533,245.389,278.422C3239.38,1544.139,3240.414,2325.01,2825.24,2752.956z"/>
		<g>
			<g>
				
					<linearGradient id="SVGID_00000063595327625132811510000008560153103402588861_" gradientUnits="userSpaceOnUse" x1="522.9899" y1="1245.9441" x2="1130.1473" y2="1245.9441">
					<stop  offset="0" style="stop-color:#4F52FF"/>
					<stop  offset="1" style="stop-color:#4042E2"/>
				</linearGradient>
				<path style="fill:url(#SVGID_00000063595327625132811510000008560153103402588861_);" d="M1002.354,1839.903
					c0,0,6.129-257.682-112.557-326.649c-118.685-68.967-344.349-112.086-352.807-482.093
					c-4.953-216.619-10.312-311.328-13.905-352.625c-1.401-16.11,12.914-29.112,28.805-26.12
					c112.405,21.175,477.561,108.334,554.119,357.57C1196.769,1305.457,1002.354,1839.903,1002.354,1839.903z"/>
				<g style="opacity:0.7;">
					<path style="fill:#7D97F4;" d="M638.82,755.364c123.387,110.044,266.062,304.799,342.109,499.555
						c9.762,32.097,38.315,100.354,50.715,221.63c11.075,101.146,5.569,208.027-7.86,278.777c-0.849,4.473-5.163,7.411-9.636,6.561
						c-7.691-1.459-6.668-9.731-6.599-9.47c15.336-120.878,8.971-271.33-26.171-407.082
						c-44.897-166.687-145.035-328.297-248.61-465.365l-10.659-13.497c-80.246-103.055-97.139-103.814-89.637-110.997
						C634.244,753.779,637.017,753.764,638.82,755.364z"/>
				</g>
			</g>
			<g>
				<path style="fill:#7D97F4;" d="M1193.087,2335.332c16.058,7.874-152.019-203.483-204.669-535.435
					c-24.81-156.424-25.134-352.411-114.24-427.937c-74.16-62.858-326.517-23.174-409.089-8.092
					c-10.318,1.884-13.791,14.918-5.76,21.663c39.598,33.255,124.304,111.696,146.375,190.749
					c29.091,104.198,128.155,170.474,216.842,188.411c88.687,17.936,138.022,35.343,181.228,177.173
					C1046.979,2083.695,1147.46,2312.959,1193.087,2335.332z"/>
				<path style="fill:#91B3FA;" d="M581.221,1407.893c105.348,4.412,218.432,52.469,275.817,142.613l5.417,8.602
					c12.51,20.169,83.408,163.551,122.785,282.406c0.49,1.482-0.313,3.081-1.794,3.572c-2.517,0.833-3.777-1.936-3.537-1.692
					c-27.435-67.144-66.837-152.273-98.22-215.932c-33.654-69.466-57.206-116.51-133.97-161.572
					c-85.441-48.529-167.067-53.525-166.822-53.475c-1.246-0.127-2.153-1.24-2.025-2.486
					C578.993,1408.731,580.034,1407.846,581.221,1407.893z"/>
			</g>
		</g>
		<g>
			<g>
				
					<linearGradient id="SVGID_00000061473523826688376850000016888478059669598142_" gradientUnits="userSpaceOnUse" x1="1624.9247" y1="2911.0073" x2="2182.1409" y2="1239.3541">
					<stop  offset="0" style="stop-color:#09005D"/>
					<stop  offset="1" style="stop-color:#1A0F91"/>
				</linearGradient>
				<path style="fill:url(#SVGID_00000061473523826688376850000016888478059669598142_);" d="M3063.702,2971.65
					c0,23.973-19.633,43.587-43.629,43.587H660.77c-23.996,0-43.629-19.615-43.629-43.587l-19.632-1355.826
					c0-23.973,28.244-70.775,80.007-67.258l2305.771-59.662c30.108-0.779,59.219,10.809,80.54,32.061
					c21.321,21.251,32.987,50.307,32.275,80.388L3063.702,2971.65z"/>
				
					<linearGradient id="SVGID_00000142165365988926471550000009416012359133119145_" gradientUnits="userSpaceOnUse" x1="3369.1326" y1="1455.5225" x2="-3619.8337" y2="5304">
					<stop  offset="0" style="stop-color:#FF928E"/>
					<stop  offset="1" style="stop-color:#FE7062"/>
				</linearGradient>
				<path style="fill:url(#SVGID_00000142165365988926471550000009416012359133119145_);" d="M3020.629,2929.833
					c0,22.702-18.574,41.276-41.276,41.276H717.666c-22.702,0-41.276-18.574-41.276-41.276l-18.526-1230.831
					c2.182-74.068,67.119-100.689,106.484-99.117l2209.937-59.289c21.153-0.568,41.61,7.576,56.585,22.526
					c14.976,14.949,23.155,35.393,22.625,56.546L3020.629,2929.833z"/>
				<g>
					<path style="fill:#FFFFFF;" d="M700.832,2342.945c-2.124,0-3.863-1.706-3.894-3.837l-1.466-99.82
						c-0.031-2.151,1.687-3.919,3.838-3.952c2.079-0.116,3.921,1.687,3.952,3.838l1.466,99.819c0.031,2.151-1.687,3.919-3.838,3.952
						H700.832z"/>
					<path style="fill:#FFFFFF;" d="M697.24,2098.338c-2.124,0-3.862-1.706-3.894-3.838l-5.614-382.303
						c0.117-25.701,8.041-46.233,23.553-61.097c28.185-27.005,72.252-25.649,74.113-25.577l705.675-18.938
						c2.13-0.192,3.94,1.638,3.999,3.788c0.057,2.151-1.639,3.94-3.789,3.998l-705.903,18.938
						c-2.007-0.08-42.88-1.331-68.704,23.417c-13.929,13.346-21.046,31.997-21.153,55.431l5.614,382.229
						c0.031,2.151-1.687,3.92-3.838,3.952C697.279,2098.338,697.258,2098.338,697.24,2098.338z"/>
				</g>
				<path style="opacity:0.23;fill:#FFFFFF;" d="M776.031,2861.552c2.368-101.729,1.486-1002.571-4.351-1080.372
					c-5.837-77.801,115.333-92.393,301.364-101.149c186.032-8.755,1755.657-43.419,1796.071-46.697
					c90.843-7.366,109.646,128.416,100.558,423.188c-6.828,221.459-18.145,586.275-23.352,754.045
					c-1.55,49.955-42.38,89.59-92.359,89.727c-377.717,1.038-1825.39,5.187-1921.763,8.057
					C821.295,2911.655,775.092,2901.89,776.031,2861.552z"/>
			</g>
			
				<linearGradient id="SVGID_00000046338969351091824430000000626947853535909266_" gradientUnits="userSpaceOnUse" x1="1998.5938" y1="1437.9752" x2="1856.9841" y2="3157.5027">
				<stop  offset="0" style="stop-color:#09005D"/>
				<stop  offset="1" style="stop-color:#1A0F91"/>
			</linearGradient>
			<path style="fill:url(#SVGID_00000046338969351091824430000000626947853535909266_);" d="M3195.535,3127.787H533.138
				c-32.76,0-59.564-26.804-59.564-59.564l0,0c0-32.76,26.804-59.564,59.564-59.564h2662.397c32.76,0,59.564,26.804,59.564,59.564
				l0,0C3255.099,3100.984,3228.295,3127.787,3195.535,3127.787z"/>
		</g>
		<g>
			<path style="fill:#91B3FA;" d="M2668.42,664.862l-1582.642-9.689c-52.013-0.319-93.611,43.127-91.035,95.076l108.881,2248.556
				H2864.81l97.788-2008.964L2668.42,664.862z"/>
			
				<linearGradient id="SVGID_00000165236545219787871600000006678960098770860726_" gradientUnits="userSpaceOnUse" x1="2816.5159" y1="736.2889" x2="2441.8213" y2="1189.2782" gradientTransform="matrix(0.9994 0.0343 -0.0343 0.9994 56.5304 -41.0612)">
				<stop  offset="0" style="stop-color:#4F52FF"/>
				<stop  offset="1" style="stop-color:#4042E2"/>
			</linearGradient>
			<path style="fill:url(#SVGID_00000165236545219787871600000006678960098770860726_);" d="M2734.23,980.209
				c-51.554-1.814-91.189-46.247-87.125-97.672l16.966-214.712l298.838,320.698L2734.23,980.209z"/>
			<g>
				<g>
					<path style="opacity:0.78;fill:#FFFFFF;" d="M1902.114,1096.558c130.076-0.634,629.433-3.958,755.53-4.801
						c15.905-0.106,28.481,16.431,27.79,36.502l0,0c-0.657,19.105-13.161,34.377-28.302,34.566l-755.202,9.422
						c-14.547,0.182-26.628-13.657-27.871-31.925l-0.314-4.621C1872.324,1114.812,1885.481,1096.638,1902.114,1096.558z"/>
				</g>
				<g>
					<path style="opacity:0.78;fill:#FFFFFF;" d="M1895.726,1254.281c130.076-0.634,629.433-3.957,755.53-4.801
						c15.905-0.106,28.481,16.431,27.79,36.502l0,0c-0.657,19.105-13.161,34.377-28.302,34.566l-755.202,9.422
						c-14.547,0.181-26.628-13.657-27.871-31.925l-0.314-4.622C1865.936,1272.535,1879.093,1254.362,1895.726,1254.281z"/>
				</g>
				<g>
					<path style="opacity:0.78;fill:#FFFFFF;" d="M1330.597,1476.559c219.418,0.154,1061.731-0.145,1274.429-0.224
						c26.829-0.01,48.607,16.612,48.125,36.689l0,0c-0.458,19.111-21.033,34.315-46.57,34.412l-1273.719,4.85
						c-24.535,0.094-45.387-13.825-48.105-32.11l-0.688-4.626C1280.962,1494.642,1302.539,1476.54,1330.597,1476.559z"/>
				</g>
				<g>
					<path style="opacity:0.78;fill:#FFFFFF;" d="M1320.459,1642.088c170.794-0.741,826.451-4.478,992.016-5.425
						c20.884-0.12,37.721,16.411,37.208,36.488l0,0c-0.489,19.11-16.609,34.396-36.487,34.597l-991.495,10.047
						c-19.098,0.194-35.234-13.638-37.224-31.909l-0.503-4.622C1281.699,1660.371,1298.619,1642.183,1320.459,1642.088z"/>
				</g>
				<g>
					<path style="opacity:0.78;fill:#FFFFFF;" d="M1328.44,1858.82c219.418,0.154,1061.731-0.145,1274.429-0.224
						c26.829-0.01,48.607,16.612,48.125,36.689l0,0c-0.458,19.111-21.033,34.315-46.569,34.412l-1273.719,4.85
						c-24.535,0.094-45.387-13.825-48.105-32.11l-0.688-4.626C1278.805,1876.902,1300.382,1858.8,1328.44,1858.82z"/>
				</g>
				<g>
					<path style="opacity:0.78;fill:#FFFFFF;" d="M1309.349,2027.104c171.601,0.313,830.36,0.622,996.708,0.696
						c20.982,0.009,37.802,16.644,37.167,36.717l0,0c-0.604,19.107-16.89,34.293-36.863,34.372l-996.212,3.929
						c-19.189,0.076-35.319-13.855-37.21-32.138l-0.478-4.625C1270.299,2045.147,1287.406,2027.064,1309.349,2027.104z"/>
				</g>
				<g>
					<path style="opacity:0.78;fill:#FFFFFF;" d="M1317.621,2248.879c219.418,0.155,1061.731-0.145,1274.429-0.224
						c26.829-0.01,48.607,16.612,48.125,36.689l0,0c-0.458,19.111-21.033,34.314-46.569,34.412l-1273.719,4.85
						c-24.535,0.094-45.387-13.825-48.105-32.11l-0.688-4.625C1267.987,2266.962,1289.564,2248.859,1317.621,2248.879z"/>
				</g>
				<g style="opacity:0.74;">
					<path style="opacity:0.78;fill:#FFFFFF;" d="M1304.37,2415.174c171.601,0.313,830.36,0.622,996.708,0.696
						c20.982,0.009,37.801,16.644,37.167,36.717l0,0c-0.603,19.107-16.89,34.293-36.862,34.372l-996.212,3.929
						c-19.189,0.076-35.319-13.855-37.21-32.139l-0.479-4.625C1265.32,2433.217,1282.427,2415.134,1304.37,2415.174z"/>
				</g>
				<path style="opacity:0.48;fill:#FFFFFF;" d="M1330.597,2634.408c219.418,0.155,1061.731-0.145,1274.429-0.224
					c26.829-0.01,48.607,16.612,48.125,36.689l0,0c-0.458,19.111-21.033,34.315-46.57,34.412l-1273.719,4.85
					c-24.535,0.093-45.387-13.825-48.105-32.11l-0.688-4.626C1280.962,2652.491,1302.539,2634.388,1330.597,2634.408z"/>
				<path style="opacity:0.36;fill:#FFFFFF;" d="M1318.184,2818.715c169.433,0.009,819.872-0.848,984.119-1.068
					c20.718-0.028,37.34,16.577,36.734,36.65l0,0c-0.577,19.108-16.642,34.322-36.363,34.437l-983.625,5.693
					c-18.947,0.11-34.887-13.792-36.772-32.072l-0.477-4.625C1279.645,2836.827,1296.518,2818.714,1318.184,2818.715z"/>
			</g>
			<g style="opacity:0.78;">
				<path style="fill:#FFFFFF;" d="M1478.665,1159.981l-53.201,161.135h-68.407l174.056-512.289h79.809l174.816,512.289h-70.688
					l-54.726-161.135H1478.665z M1646.642,1108.297l-50.162-147.455c-11.406-33.443-19.005-63.846-26.604-93.489h-1.521
					c-7.599,30.404-15.962,61.568-25.84,92.729l-50.166,148.215H1646.642z"/>
			</g>
		</g>
		<g>
			<g>
				
					<linearGradient id="SVGID_00000047052068401276576120000006528463642037749390_" gradientUnits="userSpaceOnUse" x1="1950.7263" y1="2112.4963" x2="1667.5251" y2="3472.8711">
					<stop  offset="0" style="stop-color:#4F52FF"/>
					<stop  offset="1" style="stop-color:#4042E2"/>
				</linearGradient>
				<path style="fill:url(#SVGID_00000047052068401276576120000006528463642037749390_);" d="M1662.469,3235.198
					c-1.523,0-3.071-0.333-4.56-1.03c-5.861-2.752-8.569-10.169-6.047-16.566l242.295-614.783c2.52-6.395,9.311-9.348,15.178-6.6
					c5.861,2.752,8.569,10.169,6.047,16.566l-242.295,614.783C1671.207,3232.34,1666.946,3235.198,1662.469,3235.198z"/>
				
					<linearGradient id="SVGID_00000035493571622968592320000015595032197613613479_" gradientUnits="userSpaceOnUse" x1="1980.1028" y1="2118.6123" x2="1696.9027" y2="3478.9819">
					<stop  offset="0" style="stop-color:#4F52FF"/>
					<stop  offset="1" style="stop-color:#4042E2"/>
				</linearGradient>
				<path style="fill:url(#SVGID_00000035493571622968592320000015595032197613613479_);" d="M1935.425,3235.198
					c-4.477,0-8.738-2.857-10.618-7.63l-242.296-614.783c-2.521-6.397,0.186-13.814,6.047-16.566
					c5.858-2.752,12.655,0.201,15.178,6.6l242.296,614.783c2.521,6.397-0.186,13.814-6.047,16.566
					C1938.497,3234.866,1936.948,3235.198,1935.425,3235.198z"/>
				
					<linearGradient id="SVGID_00000053527401533427681060000013734274134656465069_" gradientUnits="userSpaceOnUse" x1="2939.2378" y1="2318.2837" x2="2656.0369" y2="3678.6582">
					<stop  offset="0" style="stop-color:#4F52FF"/>
					<stop  offset="1" style="stop-color:#4042E2"/>
				</linearGradient>
				<path style="fill:url(#SVGID_00000053527401533427681060000013734274134656465069_);" d="M2693.82,3235.198
					c-1.523,0-3.07-0.333-4.56-1.03c-5.861-2.752-8.569-10.169-6.047-16.566l242.296-614.783c2.521-6.395,9.31-9.348,15.178-6.6
					c5.861,2.752,8.569,10.169,6.047,16.566l-242.296,614.783C2702.558,3232.34,2698.298,3235.198,2693.82,3235.198z"/>
				
					<linearGradient id="SVGID_00000060719989028013146270000012540893274363154079_" gradientUnits="userSpaceOnUse" x1="2968.6125" y1="2324.3989" x2="2685.4126" y2="3684.7683">
					<stop  offset="0" style="stop-color:#4F52FF"/>
					<stop  offset="1" style="stop-color:#4042E2"/>
				</linearGradient>
				<path style="fill:url(#SVGID_00000060719989028013146270000012540893274363154079_);" d="M2966.775,3235.198
					c-4.477,0-8.738-2.857-10.618-7.63l-242.296-614.783c-2.521-6.397,0.187-13.814,6.047-16.566
					c5.857-2.752,12.655,0.201,15.178,6.6l242.296,614.783c2.521,6.397-0.186,13.814-6.047,16.566
					C2969.848,3234.866,2968.298,3235.198,2966.775,3235.198z"/>
			</g>
			<g>
				
					<linearGradient id="SVGID_00000009562622531474393000000005074008330665143950_" gradientUnits="userSpaceOnUse" x1="2311.9495" y1="3395.5444" x2="2642.3667" y2="2802.1431">
					<stop  offset="0" style="stop-color:#4F52FF"/>
					<stop  offset="1" style="stop-color:#4042E2"/>
				</linearGradient>
				
					<rect x="2531.335" y="2820.92" style="fill:url(#SVGID_00000009562622531474393000000005074008330665143950_);" width="28.648" height="309.805"/>
				
					<linearGradient id="SVGID_00000093157091794482428450000012458176126407060107_" gradientUnits="userSpaceOnUse" x1="2379.0854" y1="3432.9268" x2="2709.5027" y2="2839.5256">
					<stop  offset="0" style="stop-color:#4F52FF"/>
					<stop  offset="1" style="stop-color:#4042E2"/>
				</linearGradient>
				<path style="fill:url(#SVGID_00000093157091794482428450000012458176126407060107_);" d="M2671.114,3136.697h-250.91v-1.347
					c0-9.555,7.746-17.301,17.301-17.301h214.961C2662.765,3118.049,2671.114,3126.398,2671.114,3136.697z"/>
				
					<linearGradient id="SVGID_00000145753902904721876270000015527070098987504312_" gradientUnits="userSpaceOnUse" x1="2239.4038" y1="3355.1504" x2="2569.8206" y2="2761.7498">
					<stop  offset="0" style="stop-color:#4F52FF"/>
					<stop  offset="1" style="stop-color:#4042E2"/>
				</linearGradient>
				<path style="fill:url(#SVGID_00000145753902904721876270000015527070098987504312_);" d="M2708.352,2810.167
					c0,16.944-13.863,30.808-30.807,30.808h-253.855c-16.944,0-30.808-13.864-30.808-30.808v-27.856
					c0-16.944,13.864-30.807,30.808-30.807h253.855c16.944,0,30.807,13.863,30.807,30.807V2810.167z"/>
			</g>
			<g>
				
					<linearGradient id="SVGID_00000067914643925044258830000011329233211237271990_" gradientUnits="userSpaceOnUse" x1="2450.2407" y1="3253.647" x2="2352.4641" y2="2859.1702">
					<stop  offset="0" style="stop-color:#FEBBBA"/>
					<stop  offset="1" style="stop-color:#FF928E"/>
				</linearGradient>
				<path style="fill:url(#SVGID_00000067914643925044258830000011329233211237271990_);" d="M2334.17,2614.351
					c0,0-42.569,6.599-90.43,38.593c-7.532,5.035-11.664,13.813-10.529,22.802c5.731,45.396,29.295,192.328,106.996,335.837
					c4.097,7.567,5.275,16.376,3.467,24.789l-13.499,62.823l-25.035,23.474h64.483l42.934-116.187l-18.358-5.806
					c-14.234-4.501-24.001-17.594-24.259-32.521l-2.154-124.636c1.838-55.529-34.048-93.842-34.048-93.842l102.981-5.01
					L2334.17,2614.351z"/>
				
					<linearGradient id="SVGID_00000005962809814063627070000015081524138486019725_" gradientUnits="userSpaceOnUse" x1="2357.6572" y1="3001.2363" x2="2327.6973" y2="3460.6238">
					<stop  offset="0" style="stop-color:#4F52FF"/>
					<stop  offset="1" style="stop-color:#4042E2"/>
				</linearGradient>
				<path style="fill:url(#SVGID_00000005962809814063627070000015081524138486019725_);" d="M2279.961,3134.002
					c-5.873,7.686,63.205,17.828,98.105,1.017c0,0,48.379-84.172,48.379-127.51c0,0-3.84-8.836-32.247-6.833
					c0,0-16.244,99.665-33.396,110.829c-17.152,11.164-47.988,1.129-47.988,1.129S2288.625,3122.663,2279.961,3134.002z"/>
				
					<linearGradient id="SVGID_00000103982951330887292870000007199107869540103598_" gradientUnits="userSpaceOnUse" x1="2245.6826" y1="2871.6287" x2="2876.1694" y2="2547.9558">
					<stop  offset="0" style="stop-color:#FEBBBA"/>
					<stop  offset="1" style="stop-color:#FF928E"/>
				</linearGradient>
				<path style="fill:url(#SVGID_00000103982951330887292870000007199107869540103598_);" d="M2423.689,2751.503
					c-0.548-0.948-110.875-13.266-110.875-13.266s3.611,33.545-7.674,79.723s-173.269,246.247-173.269,246.247l16.984,53.842
					c-52.514,18.293-104.171,21.217-155.001,9.324l105.26-63.167c0,0,98.511-335.707,158.852-395.596l110.59-38.26
					L2423.689,2751.503z"/>
				
					<linearGradient id="SVGID_00000124133567357558291020000010189632480131238812_" gradientUnits="userSpaceOnUse" x1="2144.4431" y1="2658.1948" x2="2625.9805" y2="2658.1948">
					<stop  offset="0" style="stop-color:#09005D"/>
					<stop  offset="1" style="stop-color:#1A0F91"/>
				</linearGradient>
				<path style="fill:url(#SVGID_00000124133567357558291020000010189632480131238812_);" d="M2671.114,2556.167
					c0,0,63.564,94.545,68.781,137.671c5.216,43.127-17.412,60.651-84.108,63.541c-66.696,2.89-244.746,2.844-244.746,2.844
					l-151.964-129.872c0,0,110.744-39.517,139.537-50.69C2427.407,2568.486,2671.114,2556.167,2671.114,2556.167z"/>
				
					<linearGradient id="SVGID_00000051372035644207060310000011658591519423156915_" gradientUnits="userSpaceOnUse" x1="2068.5459" y1="2982.3818" x2="2038.5859" y2="3441.7683">
					<stop  offset="0" style="stop-color:#4F52FF"/>
					<stop  offset="1" style="stop-color:#4042E2"/>
				</linearGradient>
				<path style="fill:url(#SVGID_00000051372035644207060310000011658591519423156915_);" d="M2142.438,3099.917
					c0,0,18.285,17.711,5.933,37.417c0,0-144.854,25.675-184.183,14.026c0,0,8.166-18.639,52.452-39.854l-3.268,2.508
					c-4.135,3.174-1.71,9.787,3.495,9.49C2046.05,3121.84,2106.443,3116.493,2142.438,3099.917z"/>
			</g>
			<g>
				
					<linearGradient id="SVGID_00000026870147501868279200000002963015611953210556_" gradientUnits="userSpaceOnUse" x1="2349.4597" y1="1929.7256" x2="2771.8311" y2="2301.8694">
					<stop  offset="0" style="stop-color:#09005D"/>
					<stop  offset="1" style="stop-color:#1A0F91"/>
				</linearGradient>
				<path style="fill:url(#SVGID_00000026870147501868279200000002963015611953210556_);" d="M2454.554,2002.147
					c9.925-1.651,46.433-6.147,52.469,15.748c0.801,2.905,4.412,3.882,6.656,1.873c11.511-10.302,38.656-29.662,68.423-16.006
					c26.281,12.057,23.85,37.169,19.31,52.57c-1.096,3.719,2.963,6.813,6.179,4.647c22.929-15.442,75.766-43.018,109.612,2.438
					c31.562,42.389,5.819,71.814-11.506,85.187c-2.931,2.262-1.538,6.912,2.147,7.275c12.636,1.245,30.055,8.2,38.063,35.226
					c12.552,42.359-65.153,77.563-74.302,81.543c-0.58,0.252-1.194,0.358-1.826,0.325l-156.957-8.043
					c-1.223-0.063-2.355-0.669-3.085-1.653l-96.286-129.711c-0.779-1.049-1.011-2.406-0.626-3.655l38.506-124.928
					C2451.788,2003.499,2453.021,2002.402,2454.554,2002.147z"/>
				
					<linearGradient id="SVGID_00000016061813126824183020000003272380166838275758_" gradientUnits="userSpaceOnUse" x1="1879.9827" y1="3329.0051" x2="2567.7883" y2="2364.73">
					<stop  offset="0" style="stop-color:#FF928E"/>
					<stop  offset="1" style="stop-color:#FE7062"/>
				</linearGradient>
				<path style="fill:url(#SVGID_00000016061813126824183020000003272380166838275758_);" d="M2499.21,2543.651
					c0,0-74.021-70.484-110.458-117.167c-19.696-25.235-25.881-58.456-16.772-89.145c16.635-56.045,46.198-114.092,48.894-123.126
					c4.132-13.848,87.13-13.271,87.13-13.271s163.322,105.998,227.491,285.55l-72.066,22.436c0,0-42.644-71.542-84.778-117.027
					c0,0,72.907,96.313,75.475,135.741L2499.21,2543.651z"/>
				
					<linearGradient id="SVGID_00000154419299713320794550000015740084303389265587_" gradientUnits="userSpaceOnUse" x1="2476.6492" y1="2292.4888" x2="2455.1497" y2="2154.5342">
					<stop  offset="0" style="stop-color:#FEBBBA"/>
					<stop  offset="1" style="stop-color:#FF928E"/>
				</linearGradient>
				<path style="fill:url(#SVGID_00000154419299713320794550000015740084303389265587_);" d="M2410.838,2136.821
					c0.866,2.878,22.529,74.693,24.223,76.184c1.695,1.491,47.507,3.955,69.072-10.783l-36.584-76.584L2410.838,2136.821z"/>
				<g>
					
						<linearGradient id="SVGID_00000054979631268635604740000018321710454618865830_" gradientUnits="userSpaceOnUse" x1="457.8649" y1="4056.676" x2="647.7823" y2="4185.6763" gradientTransform="matrix(0.7443 -0.6678 0.6678 0.7443 -715.8221 -601.6025)">
						<stop  offset="0" style="stop-color:#FEBBBA"/>
						<stop  offset="1" style="stop-color:#FF928E"/>
					</linearGradient>
					<path style="fill:url(#SVGID_00000054979631268635604740000018321710454618865830_);" d="M2349.616,2035.526
						c0,0-18.08,38.408-0.131,98.229c17.949,59.821,50.155,65.979,71.112,51.988c20.957-13.992,48.356-39.309,53.344-92.831
						C2478.929,2039.39,2374.383,1987.005,2349.616,2035.526z"/>
					
						<linearGradient id="SVGID_00000059300296361930617130000001310502835693749435_" gradientUnits="userSpaceOnUse" x1="2322.4583" y1="1960.3716" x2="2744.8281" y2="2332.5142">
						<stop  offset="0" style="stop-color:#09005D"/>
						<stop  offset="1" style="stop-color:#1A0F91"/>
					</linearGradient>
					<path style="fill:url(#SVGID_00000059300296361930617130000001310502835693749435_);" d="M2434.052,2088.168
						c0,0-33.256-81.243-88.467-33.016l-4.787,20.493c0,0-50.632-16.157-32.389-61.925c18.242-45.768,78.573-81.99,132.274-50.27
						s72.871,74.381,68.613,116.431c-4.259,42.051-35.393,26.64-35.393,26.64s-5.106-31.175-19.772-37.146
						c-14.666-5.971-15.084,17.492-15.084,17.492L2434.052,2088.168z"/>
					
						<linearGradient id="SVGID_00000018955240586951338570000016977506191867973271_" gradientUnits="userSpaceOnUse" x1="469.2488" y1="4039.9153" x2="659.1661" y2="4168.9155" gradientTransform="matrix(0.7443 -0.6678 0.6678 0.7443 -715.8221 -601.6025)">
						<stop  offset="0" style="stop-color:#FEBBBA"/>
						<stop  offset="1" style="stop-color:#FF928E"/>
					</linearGradient>
					<path style="fill:url(#SVGID_00000018955240586951338570000016977506191867973271_);" d="M2446.32,2089.533
						c0,0-17.34-41.662,8.8-42.329c26.14-0.667,14.235,40.084,8.564,54.911L2446.32,2089.533z"/>
				</g>
				
					<linearGradient id="SVGID_00000054987846842994007470000012806375196150160041_" gradientUnits="userSpaceOnUse" x1="2600.0767" y1="2531.3572" x2="3003.8535" y2="2531.3572">
					<stop  offset="0" style="stop-color:#FEBBBA"/>
					<stop  offset="1" style="stop-color:#FF928E"/>
				</linearGradient>
				<path style="fill:url(#SVGID_00000054987846842994007470000012806375196150160041_);" d="M2348.412,2548.885l54.384-52.419
					l75.234,31.782c0,0,74.888,11.602,117.748,0c42.861-11.603,42.861-11.603,42.861-11.603l96.856-30.154l15.212,42.991
					c3.862,10.915-0.019,23.033-9.457,29.739c-8.38,5.954-18.202,12.499-24.463,15.237c-12.755,5.58-314.427-3.86-314.427-3.86
					L2348.412,2548.885z"/>
			</g>
			<g>
				
					<linearGradient id="SVGID_00000096782012883191842060000007474068739344729749_" gradientUnits="userSpaceOnUse" x1="2520.2163" y1="2672.5139" x2="2266.0356" y2="2742.1782" gradientTransform="matrix(0.9988 -0.0494 0.0494 0.9988 -41.469 -55.0328)">
					<stop  offset="0" style="stop-color:#09005D"/>
					<stop  offset="1" style="stop-color:#1A0F91"/>
				</linearGradient>
				<path style="fill:url(#SVGID_00000096782012883191842060000007474068739344729749_);" d="M2554.221,2573.597
					c-0.241,0.012-0.482,0.018-0.725,0.017l-315.476-0.344c-7.799-0.007-14.114-6.335-14.106-14.135
					c0.008-7.801,6.359-14.246,14.137-14.106l315.476,0.344c7.799,0.007,14.114,6.336,14.106,14.135
					C2567.624,2567.064,2561.683,2573.228,2554.221,2573.597z"/>
				
					<linearGradient id="SVGID_00000130640474931417569310000018193865078050981299_" gradientUnits="userSpaceOnUse" x1="2263.7239" y1="2325.5725" x2="2083.3711" y2="2516.1943">
					<stop  offset="0" style="stop-color:#09005D"/>
					<stop  offset="1" style="stop-color:#1A0F91"/>
				</linearGradient>
				<path style="fill:url(#SVGID_00000130640474931417569310000018193865078050981299_);" d="M1954.42,2287.164h262.731
					c19.382,0,37.023,11.185,45.29,28.715l121.46,257.55h-326.504c-12.49,0-23.712-7.632-28.303-19.248l-94.187-238.323
					C1929.465,2302.087,1939.614,2287.164,1954.42,2287.164z"/>
				<path style="fill:#91B3FA;" d="M2139.517,2419.218c5.694,17.688,1.488,34.868-9.394,38.37s-24.319-7.998-30.012-25.686
					c-5.693-17.689-1.487-34.868,9.395-38.371C2120.386,2390.029,2133.823,2401.529,2139.517,2419.218z"/>
			</g>
			
				<linearGradient id="SVGID_00000026155729359859369270000011373542619363304074_" gradientUnits="userSpaceOnUse" x1="2253.429" y1="2662.4016" x2="1970.2285" y2="4022.7734">
				<stop  offset="0" style="stop-color:#4F52FF"/>
				<stop  offset="1" style="stop-color:#4042E2"/>
			</linearGradient>
			<path style="fill:url(#SVGID_00000026155729359859369270000011373542619363304074_);" d="M2995.137,2585.122
				c0.797-3.576-0.288-7.276-2.958-10.085c-2.669-2.81-6.645-4.438-10.839-4.438H1560.43c-5.517,0-10.652,2.442-13.624,6.478
				c-2.972,4.036-3.37,9.109-1.057,13.458l15.398,28.943c3.526,6.628,11.166,10.872,19.573,10.872h1390.872
				c7.82,0,14.542-4.816,16.028-11.485L2995.137,2585.122z"/>
		</g>
	</g>
</g>
</svg>
